<svg width="401" height="243" viewBox="0 0 401 243" fill="none" xmlns="http://www.w3.org/2000/svg">
<path d="M0 102.655C7.66667 154.155 51.4 254.055 165 241.655C162.667 191.322 126.4 93.0552 0 102.655Z" fill="#BFEEA4"/>
<path d="M179.001 216.059C192.945 165.893 193.625 56.8417 84.8029 21.9644C66.4621 68.8952 59.6247 173.417 179.001 216.059Z" fill="#82E780" fill-opacity="0.85"/>
<path d="M200.744 216.412C234.582 176.839 281.286 78.2925 197.399 0.692589C160.943 35.4752 110.573 127.315 200.744 216.412Z" fill="#BFEEA4"/>
<path d="M221.966 216.059C208.023 165.893 207.342 56.8417 316.164 21.9644C334.505 68.8952 341.343 173.417 221.966 216.059Z" fill="#199C82" fill-opacity="0.67"/>
<path d="M401 102.655C393.333 154.155 349.6 254.055 236 241.655C238.333 191.322 274.6 93.0552 401 102.655Z" fill="#78CD76" fill-opacity="0.85"/>
</svg>
